<?xml version="1.0" encoding="UTF-8" standalone="no"?>
<!DOCTYPE svg PUBLIC "-//W3C//DTD SVG 1.1//EN"
 "http://www.w3.org/Graphics/SVG/1.1/DTD/svg11.dtd">
<!-- Generated by graphviz version 2.49.3 (20211023.0002)
 -->
<!-- Title: build_dependency Pages: 1 -->
<svg width="383pt" height="260pt"
 viewBox="0.00 0.00 383.29 260.00" xmlns="http://www.w3.org/2000/svg" xmlns:xlink="http://www.w3.org/1999/xlink">
<g id="graph0" class="graph" transform="scale(1 1) rotate(0) translate(4 256)">
<title>build_dependency</title>
<polygon fill="white" stroke="transparent" points="-4,4 -4,-256 379.29,-256 379.29,4 -4,4"/>
<!-- links -->
<g id="node1" class="node">
<title>links</title>
<ellipse fill="none" stroke="black" cx="33.15" cy="-234" rx="28.7" ry="18"/>
<text text-anchor="middle" x="33.15" y="-230.3" font-family="Times,serif" font-size="14.00">links</text>
</g>
<!-- gnutls -->
<g id="node2" class="node">
<title>gnutls</title>
<ellipse fill="none" stroke="black" cx="33.15" cy="-162" rx="33.29" ry="18"/>
<text text-anchor="middle" x="33.15" y="-158.3" font-family="Times,serif" font-size="14.00">gnutls</text>
</g>
<!-- links&#45;&gt;gnutls -->
<g id="edge1" class="edge">
<title>links&#45;&gt;gnutls</title>
<path fill="none" stroke="black" d="M33.15,-215.7C33.15,-207.98 33.15,-198.71 33.15,-190.11"/>
<polygon fill="black" stroke="black" points="36.65,-190.1 33.15,-180.1 29.65,-190.1 36.65,-190.1"/>
</g>
<!-- nettle -->
<g id="node3" class="node">
<title>nettle</title>
<ellipse fill="none" stroke="black" cx="33.15" cy="-90" rx="31.4" ry="18"/>
<text text-anchor="middle" x="33.15" y="-86.3" font-family="Times,serif" font-size="14.00">nettle</text>
</g>
<!-- gnutls&#45;&gt;nettle -->
<g id="edge2" class="edge">
<title>gnutls&#45;&gt;nettle</title>
<path fill="none" stroke="black" d="M33.15,-143.7C33.15,-135.98 33.15,-126.71 33.15,-118.11"/>
<polygon fill="black" stroke="black" points="36.65,-118.1 33.15,-108.1 29.65,-118.1 36.65,-118.1"/>
</g>
<!-- gmp -->
<g id="node4" class="node">
<title>gmp</title>
<ellipse fill="none" stroke="black" cx="33.15" cy="-18" rx="27" ry="18"/>
<text text-anchor="middle" x="33.15" y="-14.3" font-family="Times,serif" font-size="14.00">gmp</text>
</g>
<!-- nettle&#45;&gt;gmp -->
<g id="edge3" class="edge">
<title>nettle&#45;&gt;gmp</title>
<path fill="none" stroke="black" d="M33.15,-71.7C33.15,-63.98 33.15,-54.71 33.15,-46.11"/>
<polygon fill="black" stroke="black" points="36.65,-46.1 33.15,-36.1 29.65,-46.1 36.65,-46.1"/>
</g>
<!-- nano2 -->
<g id="node5" class="node">
<title>nano2</title>
<ellipse fill="none" stroke="black" cx="130.15" cy="-234" rx="33.29" ry="18"/>
<text text-anchor="middle" x="130.15" y="-230.3" font-family="Times,serif" font-size="14.00">nano2</text>
</g>
<!-- glib2 -->
<g id="node6" class="node">
<title>glib2</title>
<ellipse fill="none" stroke="black" cx="130.15" cy="-162" rx="29.5" ry="18"/>
<text text-anchor="middle" x="130.15" y="-158.3" font-family="Times,serif" font-size="14.00">glib2</text>
</g>
<!-- nano2&#45;&gt;glib2 -->
<g id="edge4" class="edge">
<title>nano2&#45;&gt;glib2</title>
<path fill="none" stroke="black" d="M130.15,-215.7C130.15,-207.98 130.15,-198.71 130.15,-190.11"/>
<polygon fill="black" stroke="black" points="133.65,-190.1 130.15,-180.1 126.65,-190.1 133.65,-190.1"/>
</g>
<!-- pkgconfig -->
<g id="node7" class="node">
<title>pkgconfig</title>
<ellipse fill="none" stroke="black" cx="130.15" cy="-90" rx="47.39" ry="18"/>
<text text-anchor="middle" x="130.15" y="-86.3" font-family="Times,serif" font-size="14.00">pkgconfig</text>
</g>
<!-- glib2&#45;&gt;pkgconfig -->
<g id="edge5" class="edge">
<title>glib2&#45;&gt;pkgconfig</title>
<path fill="none" stroke="black" d="M130.15,-143.7C130.15,-135.98 130.15,-126.71 130.15,-118.11"/>
<polygon fill="black" stroke="black" points="133.65,-118.1 130.15,-108.1 126.65,-118.1 133.65,-118.1"/>
</g>
<!-- autoconf -->
<g id="node8" class="node">
<title>autoconf</title>
<ellipse fill="none" stroke="black" cx="223.15" cy="-234" rx="42.49" ry="18"/>
<text text-anchor="middle" x="223.15" y="-230.3" font-family="Times,serif" font-size="14.00">autoconf</text>
</g>
<!-- m4 -->
<g id="node9" class="node">
<title>m4</title>
<ellipse fill="none" stroke="black" cx="223.15" cy="-162" rx="27" ry="18"/>
<text text-anchor="middle" x="223.15" y="-158.3" font-family="Times,serif" font-size="14.00">m4</text>
</g>
<!-- autoconf&#45;&gt;m4 -->
<g id="edge6" class="edge">
<title>autoconf&#45;&gt;m4</title>
<path fill="none" stroke="black" d="M223.15,-215.7C223.15,-207.98 223.15,-198.71 223.15,-190.11"/>
<polygon fill="black" stroke="black" points="226.65,-190.1 223.15,-180.1 219.65,-190.1 226.65,-190.1"/>
</g>
<!-- perl -->
<g id="node10" class="node">
<title>perl</title>
<ellipse fill="none" stroke="black" cx="312.15" cy="-162" rx="27" ry="18"/>
<text text-anchor="middle" x="312.15" y="-158.3" font-family="Times,serif" font-size="14.00">perl</text>
</g>
<!-- autoconf&#45;&gt;perl -->
<g id="edge7" class="edge">
<title>autoconf&#45;&gt;perl</title>
<path fill="none" stroke="black" d="M242.46,-217.81C255.62,-207.46 273.17,-193.66 287.36,-182.49"/>
<polygon fill="black" stroke="black" points="289.58,-185.21 295.27,-176.27 285.25,-179.7 289.58,-185.21"/>
</g>
<!-- automake -->
<g id="node11" class="node">
<title>automake</title>
<ellipse fill="none" stroke="black" cx="329.15" cy="-234" rx="46.29" ry="18"/>
<text text-anchor="middle" x="329.15" y="-230.3" font-family="Times,serif" font-size="14.00">automake</text>
</g>
<!-- automake&#45;&gt;perl -->
<g id="edge8" class="edge">
<title>automake&#45;&gt;perl</title>
<path fill="none" stroke="black" d="M325.03,-216.05C323.14,-208.26 320.85,-198.82 318.72,-190.08"/>
<polygon fill="black" stroke="black" points="322.1,-189.17 316.34,-180.28 315.3,-190.82 322.1,-189.17"/>
</g>
</g>
</svg>
