<?xml version="1.0" encoding="UTF-8" standalone="no"?>
<!DOCTYPE svg PUBLIC "-//W3C//DTD SVG 1.1//EN"
 "http://www.w3.org/Graphics/SVG/1.1/DTD/svg11.dtd">
<!-- Generated by graphviz version 2.49.3 (20211023.0002)
 -->
<!-- Title: builds_after Pages: 1 -->
<svg width="606pt" height="260pt"
 viewBox="0.00 0.00 605.64 260.00" xmlns="http://www.w3.org/2000/svg" xmlns:xlink="http://www.w3.org/1999/xlink">
<g id="page0,1_graph0" class="graph" transform="scale(1 1) rotate(0) translate(4 256)">
<title>builds_after</title>
<polygon fill="white" stroke="transparent" points="-4,4 -4,-256 601.64,-256 601.64,4 -4,4"/>
<!-- gcc -->
<g id="node1" class="node">
<title>gcc</title>
<ellipse fill="none" stroke="black" cx="38.35" cy="-234" rx="27" ry="18"/>
<text text-anchor="middle" x="38.35" y="-230.3" font-family="Times,serif" font-size="14.00">gcc</text>
</g>
<!-- fileutils -->
<g id="node2" class="node">
<title>fileutils</title>
<ellipse fill="none" stroke="black" cx="38.35" cy="-162" rx="38.19" ry="18"/>
<text text-anchor="middle" x="38.35" y="-158.3" font-family="Times,serif" font-size="14.00">fileutils</text>
</g>
<!-- gcc&#45;&gt;fileutils -->
<g id="edge1" class="edge">
<title>gcc&#45;&gt;fileutils</title>
<path fill="none" stroke="black" d="M38.35,-215.7C38.35,-207.98 38.35,-198.71 38.35,-190.11"/>
<polygon fill="black" stroke="black" points="41.85,-190.1 38.35,-180.1 34.85,-190.1 41.85,-190.1"/>
</g>
<!-- wget -->
<g id="node3" class="node">
<title>wget</title>
<ellipse fill="none" stroke="black" cx="112.35" cy="-234" rx="28.7" ry="18"/>
<text text-anchor="middle" x="112.35" y="-230.3" font-family="Times,serif" font-size="14.00">wget</text>
</g>
<!-- libtool -->
<g id="node4" class="node">
<title>libtool</title>
<ellipse fill="none" stroke="black" cx="127.35" cy="-90" rx="34.39" ry="18"/>
<text text-anchor="middle" x="127.35" y="-86.3" font-family="Times,serif" font-size="14.00">libtool</text>
</g>
<!-- make -->
<g id="node5" class="node">
<title>make</title>
<ellipse fill="none" stroke="black" cx="166.35" cy="-18" rx="30.59" ry="18"/>
<text text-anchor="middle" x="166.35" y="-14.3" font-family="Times,serif" font-size="14.00">make</text>
</g>
<!-- libtool&#45;&gt;make -->
<g id="edge2" class="edge">
<title>libtool&#45;&gt;make</title>
<path fill="none" stroke="black" d="M136.59,-72.41C141.25,-64.04 147.01,-53.71 152.21,-44.37"/>
<polygon fill="black" stroke="black" points="155.36,-45.91 157.17,-35.47 149.25,-42.5 155.36,-45.91"/>
</g>
<!-- pkgconfig -->
<g id="node6" class="node">
<title>pkgconfig</title>
<ellipse fill="none" stroke="black" cx="206.35" cy="-234" rx="47.39" ry="18"/>
<text text-anchor="middle" x="206.35" y="-230.3" font-family="Times,serif" font-size="14.00">pkgconfig</text>
</g>
<!-- grep -->
<g id="node7" class="node">
<title>grep</title>
<ellipse fill="none" stroke="black" cx="206.35" cy="-162" rx="27" ry="18"/>
<text text-anchor="middle" x="206.35" y="-158.3" font-family="Times,serif" font-size="14.00">grep</text>
</g>
<!-- pkgconfig&#45;&gt;grep -->
<g id="edge3" class="edge">
<title>pkgconfig&#45;&gt;grep</title>
<path fill="none" stroke="black" d="M206.35,-215.7C206.35,-207.98 206.35,-198.71 206.35,-190.11"/>
<polygon fill="black" stroke="black" points="209.85,-190.1 206.35,-180.1 202.85,-190.1 209.85,-190.1"/>
</g>
<!-- m4 -->
<g id="node8" class="node">
<title>m4</title>
<ellipse fill="none" stroke="black" cx="206.35" cy="-90" rx="27" ry="18"/>
<text text-anchor="middle" x="206.35" y="-86.3" font-family="Times,serif" font-size="14.00">m4</text>
</g>
<!-- grep&#45;&gt;m4 -->
<g id="edge4" class="edge">
<title>grep&#45;&gt;m4</title>
<path fill="none" stroke="black" d="M206.35,-143.7C206.35,-135.98 206.35,-126.71 206.35,-118.11"/>
<polygon fill="black" stroke="black" points="209.85,-118.1 206.35,-108.1 202.85,-118.1 209.85,-118.1"/>
</g>
<!-- m4&#45;&gt;make -->
<g id="edge5" class="edge">
<title>m4&#45;&gt;make</title>
<path fill="none" stroke="black" d="M197.07,-72.76C192.29,-64.4 186.36,-54.02 180.98,-44.61"/>
<polygon fill="black" stroke="black" points="183.85,-42.58 175.85,-35.63 177.77,-46.05 183.85,-42.58"/>
</g>
<!-- autogen -->
<g id="node9" class="node">
<title>autogen</title>
<ellipse fill="none" stroke="black" cx="311.35" cy="-234" rx="39.79" ry="18"/>
<text text-anchor="middle" x="311.35" y="-230.3" font-family="Times,serif" font-size="14.00">autogen</text>
</g>
<!-- autoconf -->
<g id="node10" class="node">
<title>autoconf</title>
<ellipse fill="none" stroke="black" cx="411.35" cy="-234" rx="42.49" ry="18"/>
<text text-anchor="middle" x="411.35" y="-230.3" font-family="Times,serif" font-size="14.00">autoconf</text>
</g>
<!-- perl -->
<g id="node11" class="node">
<title>perl</title>
<ellipse fill="none" stroke="black" cx="498.35" cy="-234" rx="27" ry="18"/>
<text text-anchor="middle" x="498.35" y="-230.3" font-family="Times,serif" font-size="14.00">perl</text>
</g>
<!-- sed -->
<g id="node12" class="node">
<title>sed</title>
<ellipse fill="none" stroke="black" cx="498.35" cy="-162" rx="27" ry="18"/>
<text text-anchor="middle" x="498.35" y="-158.3" font-family="Times,serif" font-size="14.00">sed</text>
</g>
<!-- perl&#45;&gt;sed -->
<g id="edge6" class="edge">
<title>perl&#45;&gt;sed</title>
<path fill="none" stroke="black" d="M498.35,-215.7C498.35,-207.98 498.35,-198.71 498.35,-190.11"/>
<polygon fill="black" stroke="black" points="501.85,-190.1 498.35,-180.1 494.85,-190.1 501.85,-190.1"/>
</g>
<!-- bash -->
<g id="node13" class="node">
<title>bash</title>
<ellipse fill="none" stroke="black" cx="570.35" cy="-234" rx="27.1" ry="18"/>
<text text-anchor="middle" x="570.35" y="-230.3" font-family="Times,serif" font-size="14.00">bash</text>
</g>
</g>
</svg>
