<?xml version="1.0" encoding="UTF-8" standalone="no"?>
<!DOCTYPE svg PUBLIC "-//W3C//DTD SVG 1.1//EN"
 "http://www.w3.org/Graphics/SVG/1.1/DTD/svg11.dtd">
<!-- Generated by graphviz version 2.49.3 (20211023.0002)
 -->
<!-- Title: build_requires Pages: 1 -->
<svg width="523pt" height="332pt"
 viewBox="0.00 0.00 522.69 332.00" xmlns="http://www.w3.org/2000/svg" xmlns:xlink="http://www.w3.org/1999/xlink">
<g id="graph0" class="graph" transform="scale(1 1) rotate(0) translate(4 328)">
<title>build_requires</title>
<polygon fill="white" stroke="transparent" points="-4,4 -4,-328 518.69,-328 518.69,4 -4,4"/>
<!-- links -->
<g id="node1" class="node">
<title>links</title>
<ellipse fill="none" stroke="black" cx="33.15" cy="-306" rx="28.7" ry="18"/>
<text text-anchor="middle" x="33.15" y="-302.3" font-family="Times,serif" font-size="14.00">links</text>
</g>
<!-- gnutls -->
<g id="node2" class="node">
<title>gnutls</title>
<ellipse fill="none" stroke="black" cx="33.15" cy="-234" rx="33.29" ry="18"/>
<text text-anchor="middle" x="33.15" y="-230.3" font-family="Times,serif" font-size="14.00">gnutls</text>
</g>
<!-- links&#45;&gt;gnutls -->
<g id="edge1" class="edge">
<title>links&#45;&gt;gnutls</title>
<path fill="none" stroke="black" d="M33.15,-287.7C33.15,-279.98 33.15,-270.71 33.15,-262.11"/>
<polygon fill="black" stroke="black" points="36.65,-262.1 33.15,-252.1 29.65,-262.1 36.65,-262.1"/>
</g>
<!-- nettle -->
<g id="node3" class="node">
<title>nettle</title>
<ellipse fill="none" stroke="black" cx="33.15" cy="-162" rx="31.4" ry="18"/>
<text text-anchor="middle" x="33.15" y="-158.3" font-family="Times,serif" font-size="14.00">nettle</text>
</g>
<!-- gnutls&#45;&gt;nettle -->
<g id="edge2" class="edge">
<title>gnutls&#45;&gt;nettle</title>
<path fill="none" stroke="black" d="M33.15,-215.7C33.15,-207.98 33.15,-198.71 33.15,-190.11"/>
<polygon fill="black" stroke="black" points="36.65,-190.1 33.15,-180.1 29.65,-190.1 36.65,-190.1"/>
</g>
<!-- gmp -->
<g id="node4" class="node">
<title>gmp</title>
<ellipse fill="none" stroke="black" cx="33.15" cy="-90" rx="27" ry="18"/>
<text text-anchor="middle" x="33.15" y="-86.3" font-family="Times,serif" font-size="14.00">gmp</text>
</g>
<!-- nettle&#45;&gt;gmp -->
<g id="edge3" class="edge">
<title>nettle&#45;&gt;gmp</title>
<path fill="none" stroke="black" d="M33.15,-143.7C33.15,-135.98 33.15,-126.71 33.15,-118.11"/>
<polygon fill="black" stroke="black" points="36.65,-118.1 33.15,-108.1 29.65,-118.1 36.65,-118.1"/>
</g>
<!-- uname -->
<g id="node15" class="node">
<title>uname</title>
<ellipse fill="none" stroke="black" cx="264.15" cy="-18" rx="35.19" ry="18"/>
<text text-anchor="middle" x="264.15" y="-14.3" font-family="Times,serif" font-size="14.00">uname</text>
</g>
<!-- gmp&#45;&gt;uname -->
<g id="edge15" class="edge">
<title>gmp&#45;&gt;uname</title>
<path fill="none" stroke="black" d="M54.2,-78.3C59.04,-76.05 64.22,-73.82 69.15,-72 120.77,-52.96 182.34,-37.36 222.28,-28.13"/>
<polygon fill="black" stroke="black" points="223.23,-31.5 232.2,-25.86 221.67,-24.67 223.23,-31.5"/>
</g>
<!-- nano2 -->
<g id="node5" class="node">
<title>nano2</title>
<ellipse fill="none" stroke="black" cx="125.15" cy="-234" rx="33.29" ry="18"/>
<text text-anchor="middle" x="125.15" y="-230.3" font-family="Times,serif" font-size="14.00">nano2</text>
</g>
<!-- glib2 -->
<g id="node6" class="node">
<title>glib2</title>
<ellipse fill="none" stroke="black" cx="125.15" cy="-162" rx="29.5" ry="18"/>
<text text-anchor="middle" x="125.15" y="-158.3" font-family="Times,serif" font-size="14.00">glib2</text>
</g>
<!-- nano2&#45;&gt;glib2 -->
<g id="edge4" class="edge">
<title>nano2&#45;&gt;glib2</title>
<path fill="none" stroke="black" d="M125.15,-215.7C125.15,-207.98 125.15,-198.71 125.15,-190.11"/>
<polygon fill="black" stroke="black" points="128.65,-190.1 125.15,-180.1 121.65,-190.1 128.65,-190.1"/>
</g>
<!-- pkgconfig -->
<g id="node7" class="node">
<title>pkgconfig</title>
<ellipse fill="none" stroke="black" cx="125.15" cy="-90" rx="47.39" ry="18"/>
<text text-anchor="middle" x="125.15" y="-86.3" font-family="Times,serif" font-size="14.00">pkgconfig</text>
</g>
<!-- glib2&#45;&gt;pkgconfig -->
<g id="edge5" class="edge">
<title>glib2&#45;&gt;pkgconfig</title>
<path fill="none" stroke="black" d="M125.15,-143.7C125.15,-135.98 125.15,-126.71 125.15,-118.11"/>
<polygon fill="black" stroke="black" points="128.65,-118.1 125.15,-108.1 121.65,-118.1 128.65,-118.1"/>
</g>
<!-- pkgconfig&#45;&gt;uname -->
<g id="edge16" class="edge">
<title>pkgconfig&#45;&gt;uname</title>
<path fill="none" stroke="black" d="M152.61,-75.17C175.1,-63.84 207,-47.78 230.93,-35.73"/>
<polygon fill="black" stroke="black" points="232.64,-38.79 239.99,-31.16 229.49,-32.54 232.64,-38.79"/>
</g>
<!-- autoconf -->
<g id="node8" class="node">
<title>autoconf</title>
<ellipse fill="none" stroke="black" cx="380.15" cy="-162" rx="42.49" ry="18"/>
<text text-anchor="middle" x="380.15" y="-158.3" font-family="Times,serif" font-size="14.00">autoconf</text>
</g>
<!-- m4 -->
<g id="node9" class="node">
<title>m4</title>
<ellipse fill="none" stroke="black" cx="336.15" cy="-90" rx="27" ry="18"/>
<text text-anchor="middle" x="336.15" y="-86.3" font-family="Times,serif" font-size="14.00">m4</text>
</g>
<!-- autoconf&#45;&gt;m4 -->
<g id="edge6" class="edge">
<title>autoconf&#45;&gt;m4</title>
<path fill="none" stroke="black" d="M369.72,-144.41C364.33,-135.83 357.64,-125.19 351.65,-115.67"/>
<polygon fill="black" stroke="black" points="354.48,-113.59 346.2,-106.99 348.56,-117.32 354.48,-113.59"/>
</g>
<!-- perl -->
<g id="node10" class="node">
<title>perl</title>
<ellipse fill="none" stroke="black" cx="264.15" cy="-90" rx="27" ry="18"/>
<text text-anchor="middle" x="264.15" y="-86.3" font-family="Times,serif" font-size="14.00">perl</text>
</g>
<!-- autoconf&#45;&gt;perl -->
<g id="edge7" class="edge">
<title>autoconf&#45;&gt;perl</title>
<path fill="none" stroke="black" d="M356.67,-146.83C338.07,-135.61 312.02,-119.89 292.3,-107.99"/>
<polygon fill="black" stroke="black" points="294.1,-104.99 283.73,-102.82 290.49,-110.98 294.1,-104.99"/>
</g>
<!-- m4&#45;&gt;uname -->
<g id="edge11" class="edge">
<title>m4&#45;&gt;uname</title>
<path fill="none" stroke="black" d="M321.58,-74.83C311.76,-65.29 298.6,-52.5 287.36,-41.57"/>
<polygon fill="black" stroke="black" points="289.55,-38.82 279.94,-34.36 284.68,-43.84 289.55,-38.82"/>
</g>
<!-- perl&#45;&gt;uname -->
<g id="edge17" class="edge">
<title>perl&#45;&gt;uname</title>
<path fill="none" stroke="black" d="M264.15,-71.7C264.15,-63.98 264.15,-54.71 264.15,-46.11"/>
<polygon fill="black" stroke="black" points="267.65,-46.1 264.15,-36.1 260.65,-46.1 267.65,-46.1"/>
</g>
<!-- automake -->
<g id="node11" class="node">
<title>automake</title>
<ellipse fill="none" stroke="black" cx="274.15" cy="-162" rx="46.29" ry="18"/>
<text text-anchor="middle" x="274.15" y="-158.3" font-family="Times,serif" font-size="14.00">automake</text>
</g>
<!-- automake&#45;&gt;perl -->
<g id="edge8" class="edge">
<title>automake&#45;&gt;perl</title>
<path fill="none" stroke="black" d="M271.68,-143.7C270.57,-135.98 269.25,-126.71 268.02,-118.11"/>
<polygon fill="black" stroke="black" points="271.47,-117.51 266.59,-108.1 264.54,-118.5 271.47,-117.51"/>
</g>
<!-- gcc -->
<g id="node12" class="node">
<title>gcc</title>
<ellipse fill="none" stroke="black" cx="306.15" cy="-306" rx="27" ry="18"/>
<text text-anchor="middle" x="306.15" y="-302.3" font-family="Times,serif" font-size="14.00">gcc</text>
</g>
<!-- shutils -->
<g id="node13" class="node">
<title>shutils</title>
<ellipse fill="none" stroke="black" cx="254.15" cy="-234" rx="34.39" ry="18"/>
<text text-anchor="middle" x="254.15" y="-230.3" font-family="Times,serif" font-size="14.00">shutils</text>
</g>
<!-- gcc&#45;&gt;shutils -->
<g id="edge9" class="edge">
<title>gcc&#45;&gt;shutils</title>
<path fill="none" stroke="black" d="M294.61,-289.46C287.97,-280.53 279.48,-269.11 272,-259.04"/>
<polygon fill="black" stroke="black" points="274.79,-256.92 266.02,-250.98 269.17,-261.09 274.79,-256.92"/>
</g>
<!-- patch -->
<g id="node14" class="node">
<title>patch</title>
<ellipse fill="none" stroke="black" cx="358.15" cy="-234" rx="30.59" ry="18"/>
<text text-anchor="middle" x="358.15" y="-230.3" font-family="Times,serif" font-size="14.00">patch</text>
</g>
<!-- gcc&#45;&gt;patch -->
<g id="edge10" class="edge">
<title>gcc&#45;&gt;patch</title>
<path fill="none" stroke="black" d="M317.69,-289.46C324.33,-280.53 332.81,-269.11 340.29,-259.04"/>
<polygon fill="black" stroke="black" points="343.12,-261.09 346.28,-250.98 337.51,-256.92 343.12,-261.09"/>
</g>
<!-- shutils&#45;&gt;uname -->
<g id="edge12" class="edge">
<title>shutils&#45;&gt;uname</title>
<path fill="none" stroke="black" d="M240.05,-217.1C232.23,-207.18 223.27,-193.73 219.15,-180 211.93,-155.99 227.59,-73.47 228.15,-72 231.97,-61.85 238.11,-51.75 244.23,-43.12"/>
<polygon fill="black" stroke="black" points="247.09,-45.15 250.28,-35.05 241.48,-40.96 247.09,-45.15"/>
</g>
<!-- patch&#45;&gt;autoconf -->
<g id="edge18" class="edge">
<title>patch&#45;&gt;autoconf</title>
<path fill="none" stroke="black" d="M363.47,-216.05C365.92,-208.26 368.89,-198.82 371.64,-190.08"/>
<polygon fill="black" stroke="black" points="375.06,-190.86 374.72,-180.28 368.38,-188.77 375.06,-190.86"/>
</g>
<!-- bash -->
<g id="node16" class="node">
<title>bash</title>
<ellipse fill="none" stroke="black" cx="408.15" cy="-90" rx="27.1" ry="18"/>
<text text-anchor="middle" x="408.15" y="-86.3" font-family="Times,serif" font-size="14.00">bash</text>
</g>
<!-- bash&#45;&gt;uname -->
<g id="edge13" class="edge">
<title>bash&#45;&gt;uname</title>
<path fill="none" stroke="black" d="M386.9,-78.67C363.53,-67.31 325.63,-48.89 298.12,-35.52"/>
<polygon fill="black" stroke="black" points="299.39,-32.24 288.87,-31.02 296.33,-38.54 299.39,-32.24"/>
</g>
<!-- make -->
<g id="node17" class="node">
<title>make</title>
<ellipse fill="none" stroke="black" cx="484.15" cy="-90" rx="30.59" ry="18"/>
<text text-anchor="middle" x="484.15" y="-86.3" font-family="Times,serif" font-size="14.00">make</text>
</g>
<!-- make&#45;&gt;uname -->
<g id="edge14" class="edge">
<title>make&#45;&gt;uname</title>
<path fill="none" stroke="black" d="M460.64,-78.47C455.26,-76.22 449.55,-73.93 444.15,-72 396.91,-55.07 341.36,-39.33 304.6,-29.47"/>
<polygon fill="black" stroke="black" points="305.31,-26.04 294.75,-26.85 303.51,-32.81 305.31,-26.04"/>
</g>
</g>
</svg>
