<?xml version="1.0" encoding="UTF-8" standalone="no"?>
<!DOCTYPE svg PUBLIC "-//W3C//DTD SVG 1.1//EN"
 "http://www.w3.org/Graphics/SVG/1.1/DTD/svg11.dtd">
<!-- Generated by graphviz version 2.49.3 (20211023.0002)
 -->
<!-- Title: build_requires Pages: 1 -->
<svg width="860pt" height="332pt"
 viewBox="0.00 0.00 859.74 332.00" xmlns="http://www.w3.org/2000/svg" xmlns:xlink="http://www.w3.org/1999/xlink">
<g id="graph0" class="graph" transform="scale(1 1) rotate(0) translate(4 328)">
<title>build_requires</title>
<polygon fill="white" stroke="transparent" points="-4,4 -4,-328 855.74,-328 855.74,4 -4,4"/>
<!-- autoconf -->
<g id="node1" class="node">
<title>autoconf</title>
<ellipse fill="none" stroke="black" cx="157.15" cy="-162" rx="42.49" ry="18"/>
<text text-anchor="middle" x="157.15" y="-158.3" font-family="Times,serif" font-size="14.00">autoconf</text>
</g>
<!-- m4 -->
<g id="node2" class="node">
<title>m4</title>
<ellipse fill="none" stroke="black" cx="190.15" cy="-90" rx="27" ry="18"/>
<text text-anchor="middle" x="190.15" y="-86.3" font-family="Times,serif" font-size="14.00">m4</text>
</g>
<!-- autoconf&#45;&gt;m4 -->
<g id="edge1" class="edge">
<title>autoconf&#45;&gt;m4</title>
<path fill="none" stroke="black" d="M165.13,-144.05C169.04,-135.77 173.83,-125.62 178.16,-116.42"/>
<polygon fill="black" stroke="black" points="181.36,-117.84 182.46,-107.31 175.03,-114.86 181.36,-117.84"/>
</g>
<!-- perl -->
<g id="node3" class="node">
<title>perl</title>
<ellipse fill="none" stroke="black" cx="46.15" cy="-90" rx="27" ry="18"/>
<text text-anchor="middle" x="46.15" y="-86.3" font-family="Times,serif" font-size="14.00">perl</text>
</g>
<!-- autoconf&#45;&gt;perl -->
<g id="edge2" class="edge">
<title>autoconf&#45;&gt;perl</title>
<path fill="none" stroke="black" d="M134.42,-146.67C116.86,-135.6 92.5,-120.23 73.82,-108.45"/>
<polygon fill="black" stroke="black" points="75.48,-105.36 65.15,-102.99 71.75,-111.28 75.48,-105.36"/>
</g>
<!-- uname -->
<g id="node6" class="node">
<title>uname</title>
<ellipse fill="none" stroke="black" cx="385.15" cy="-18" rx="35.19" ry="18"/>
<text text-anchor="middle" x="385.15" y="-14.3" font-family="Times,serif" font-size="14.00">uname</text>
</g>
<!-- m4&#45;&gt;uname -->
<g id="edge13" class="edge">
<title>m4&#45;&gt;uname</title>
<path fill="none" stroke="black" d="M212.18,-79.57C218.29,-77.04 224.95,-74.35 231.15,-72 270.15,-57.22 315.35,-41.87 346.64,-31.52"/>
<polygon fill="black" stroke="black" points="347.89,-34.79 356.29,-28.34 345.7,-28.15 347.89,-34.79"/>
</g>
<!-- perl&#45;&gt;uname -->
<g id="edge18" class="edge">
<title>perl&#45;&gt;uname</title>
<path fill="none" stroke="black" d="M66.7,-78.14C71.66,-75.85 77.01,-73.63 82.15,-72 171.46,-43.67 280.69,-29.28 340.57,-23.02"/>
<polygon fill="black" stroke="black" points="341.21,-26.48 350.81,-21.98 340.51,-19.51 341.21,-26.48"/>
</g>
<!-- automake -->
<g id="node4" class="node">
<title>automake</title>
<ellipse fill="none" stroke="black" cx="46.15" cy="-162" rx="46.29" ry="18"/>
<text text-anchor="middle" x="46.15" y="-158.3" font-family="Times,serif" font-size="14.00">automake</text>
</g>
<!-- automake&#45;&gt;perl -->
<g id="edge3" class="edge">
<title>automake&#45;&gt;perl</title>
<path fill="none" stroke="black" d="M46.15,-143.7C46.15,-135.98 46.15,-126.71 46.15,-118.11"/>
<polygon fill="black" stroke="black" points="49.65,-118.1 46.15,-108.1 42.65,-118.1 49.65,-118.1"/>
</g>
<!-- bash -->
<g id="node5" class="node">
<title>bash</title>
<ellipse fill="none" stroke="black" cx="118.15" cy="-90" rx="27.1" ry="18"/>
<text text-anchor="middle" x="118.15" y="-86.3" font-family="Times,serif" font-size="14.00">bash</text>
</g>
<!-- bash&#45;&gt;uname -->
<g id="edge4" class="edge">
<title>bash&#45;&gt;uname</title>
<path fill="none" stroke="black" d="M139.15,-78.15C143.99,-75.92 149.18,-73.72 154.15,-72 217.95,-49.91 294.86,-34.36 341.87,-26.05"/>
<polygon fill="black" stroke="black" points="342.75,-29.45 352,-24.28 341.55,-22.55 342.75,-29.45"/>
</g>
<!-- gcc -->
<g id="node7" class="node">
<title>gcc</title>
<ellipse fill="none" stroke="black" cx="199.15" cy="-306" rx="27" ry="18"/>
<text text-anchor="middle" x="199.15" y="-302.3" font-family="Times,serif" font-size="14.00">gcc</text>
</g>
<!-- patch -->
<g id="node8" class="node">
<title>patch</title>
<ellipse fill="none" stroke="black" cx="157.15" cy="-234" rx="30.59" ry="18"/>
<text text-anchor="middle" x="157.15" y="-230.3" font-family="Times,serif" font-size="14.00">patch</text>
</g>
<!-- gcc&#45;&gt;patch -->
<g id="edge5" class="edge">
<title>gcc&#45;&gt;patch</title>
<path fill="none" stroke="black" d="M189.62,-289.12C184.48,-280.56 178.02,-269.8 172.22,-260.13"/>
<polygon fill="black" stroke="black" points="175.08,-258.08 166.93,-251.31 169.07,-261.68 175.08,-258.08"/>
</g>
<!-- shutils -->
<g id="node9" class="node">
<title>shutils</title>
<ellipse fill="none" stroke="black" cx="240.15" cy="-234" rx="34.39" ry="18"/>
<text text-anchor="middle" x="240.15" y="-230.3" font-family="Times,serif" font-size="14.00">shutils</text>
</g>
<!-- gcc&#45;&gt;shutils -->
<g id="edge6" class="edge">
<title>gcc&#45;&gt;shutils</title>
<path fill="none" stroke="black" d="M208.66,-288.76C213.6,-280.32 219.76,-269.8 225.32,-260.31"/>
<polygon fill="black" stroke="black" points="228.37,-262.03 230.4,-251.63 222.33,-258.49 228.37,-262.03"/>
</g>
<!-- patch&#45;&gt;autoconf -->
<g id="edge19" class="edge">
<title>patch&#45;&gt;autoconf</title>
<path fill="none" stroke="black" d="M157.15,-215.7C157.15,-207.98 157.15,-198.71 157.15,-190.11"/>
<polygon fill="black" stroke="black" points="160.65,-190.1 157.15,-180.1 153.65,-190.1 160.65,-190.1"/>
</g>
<!-- shutils&#45;&gt;uname -->
<g id="edge21" class="edge">
<title>shutils&#45;&gt;uname</title>
<path fill="none" stroke="black" d="M237.71,-215.92C234.16,-184.11 231.18,-115.1 264.15,-72 282.99,-47.37 315.68,-33.97 342.34,-26.81"/>
<polygon fill="black" stroke="black" points="343.36,-30.17 352.22,-24.36 341.68,-23.37 343.36,-30.17"/>
</g>
<!-- gmp -->
<g id="node10" class="node">
<title>gmp</title>
<ellipse fill="none" stroke="black" cx="300.15" cy="-90" rx="27" ry="18"/>
<text text-anchor="middle" x="300.15" y="-86.3" font-family="Times,serif" font-size="14.00">gmp</text>
</g>
<!-- gmp&#45;&gt;uname -->
<g id="edge7" class="edge">
<title>gmp&#45;&gt;uname</title>
<path fill="none" stroke="black" d="M316.53,-75.5C328.71,-65.47 345.56,-51.6 359.52,-40.11"/>
<polygon fill="black" stroke="black" points="361.85,-42.72 367.34,-33.66 357.4,-37.32 361.85,-42.72"/>
</g>
<!-- libiconv -->
<g id="node11" class="node">
<title>libiconv</title>
<ellipse fill="none" stroke="black" cx="385.15" cy="-90" rx="40.09" ry="18"/>
<text text-anchor="middle" x="385.15" y="-86.3" font-family="Times,serif" font-size="14.00">libiconv</text>
</g>
<!-- libiconv&#45;&gt;uname -->
<g id="edge8" class="edge">
<title>libiconv&#45;&gt;uname</title>
<path fill="none" stroke="black" d="M385.15,-71.7C385.15,-63.98 385.15,-54.71 385.15,-46.11"/>
<polygon fill="black" stroke="black" points="388.65,-46.1 385.15,-36.1 381.65,-46.1 388.65,-46.1"/>
</g>
<!-- libtool -->
<g id="node12" class="node">
<title>libtool</title>
<ellipse fill="none" stroke="black" cx="478.15" cy="-90" rx="34.39" ry="18"/>
<text text-anchor="middle" x="478.15" y="-86.3" font-family="Times,serif" font-size="14.00">libtool</text>
</g>
<!-- libtool&#45;&gt;uname -->
<g id="edge9" class="edge">
<title>libtool&#45;&gt;uname</title>
<path fill="none" stroke="black" d="M459.33,-74.83C445.8,-64.65 427.37,-50.78 412.26,-39.41"/>
<polygon fill="black" stroke="black" points="414.35,-36.6 404.26,-33.38 410.14,-42.19 414.35,-36.6"/>
</g>
<!-- links -->
<g id="node13" class="node">
<title>links</title>
<ellipse fill="none" stroke="black" cx="326.15" cy="-306" rx="28.7" ry="18"/>
<text text-anchor="middle" x="326.15" y="-302.3" font-family="Times,serif" font-size="14.00">links</text>
</g>
<!-- gnutls -->
<g id="node14" class="node">
<title>gnutls</title>
<ellipse fill="none" stroke="black" cx="326.15" cy="-234" rx="33.29" ry="18"/>
<text text-anchor="middle" x="326.15" y="-230.3" font-family="Times,serif" font-size="14.00">gnutls</text>
</g>
<!-- links&#45;&gt;gnutls -->
<g id="edge10" class="edge">
<title>links&#45;&gt;gnutls</title>
<path fill="none" stroke="black" d="M326.15,-287.7C326.15,-279.98 326.15,-270.71 326.15,-262.11"/>
<polygon fill="black" stroke="black" points="329.65,-262.1 326.15,-252.1 322.65,-262.1 329.65,-262.1"/>
</g>
<!-- nettle -->
<g id="node15" class="node">
<title>nettle</title>
<ellipse fill="none" stroke="black" cx="315.15" cy="-162" rx="31.4" ry="18"/>
<text text-anchor="middle" x="315.15" y="-158.3" font-family="Times,serif" font-size="14.00">nettle</text>
</g>
<!-- gnutls&#45;&gt;nettle -->
<g id="edge11" class="edge">
<title>gnutls&#45;&gt;nettle</title>
<path fill="none" stroke="black" d="M323.48,-216.05C322.27,-208.35 320.81,-199.03 319.45,-190.36"/>
<polygon fill="black" stroke="black" points="322.87,-189.61 317.86,-180.28 315.96,-190.7 322.87,-189.61"/>
</g>
<!-- nettle&#45;&gt;gmp -->
<g id="edge12" class="edge">
<title>nettle&#45;&gt;gmp</title>
<path fill="none" stroke="black" d="M311.51,-144.05C309.84,-136.26 307.82,-126.82 305.95,-118.08"/>
<polygon fill="black" stroke="black" points="309.37,-117.32 303.85,-108.28 302.52,-118.79 309.37,-117.32"/>
</g>
<!-- make -->
<g id="node16" class="node">
<title>make</title>
<ellipse fill="none" stroke="black" cx="561.15" cy="-90" rx="30.59" ry="18"/>
<text text-anchor="middle" x="561.15" y="-86.3" font-family="Times,serif" font-size="14.00">make</text>
</g>
<!-- make&#45;&gt;uname -->
<g id="edge14" class="edge">
<title>make&#45;&gt;uname</title>
<path fill="none" stroke="black" d="M537.08,-78.63C531.84,-76.41 526.32,-74.11 521.15,-72 487.81,-58.42 449.59,-43.59 422.18,-33.08"/>
<polygon fill="black" stroke="black" points="423.18,-29.72 412.59,-29.42 420.68,-36.26 423.18,-29.72"/>
</g>
<!-- nano2 -->
<g id="node17" class="node">
<title>nano2</title>
<ellipse fill="none" stroke="black" cx="657.15" cy="-234" rx="33.29" ry="18"/>
<text text-anchor="middle" x="657.15" y="-230.3" font-family="Times,serif" font-size="14.00">nano2</text>
</g>
<!-- glib2 -->
<g id="node18" class="node">
<title>glib2</title>
<ellipse fill="none" stroke="black" cx="657.15" cy="-162" rx="29.5" ry="18"/>
<text text-anchor="middle" x="657.15" y="-158.3" font-family="Times,serif" font-size="14.00">glib2</text>
</g>
<!-- nano2&#45;&gt;glib2 -->
<g id="edge15" class="edge">
<title>nano2&#45;&gt;glib2</title>
<path fill="none" stroke="black" d="M657.15,-215.7C657.15,-207.98 657.15,-198.71 657.15,-190.11"/>
<polygon fill="black" stroke="black" points="660.65,-190.1 657.15,-180.1 653.65,-190.1 660.65,-190.1"/>
</g>
<!-- pkgconfig -->
<g id="node19" class="node">
<title>pkgconfig</title>
<ellipse fill="none" stroke="black" cx="657.15" cy="-90" rx="47.39" ry="18"/>
<text text-anchor="middle" x="657.15" y="-86.3" font-family="Times,serif" font-size="14.00">pkgconfig</text>
</g>
<!-- glib2&#45;&gt;pkgconfig -->
<g id="edge16" class="edge">
<title>glib2&#45;&gt;pkgconfig</title>
<path fill="none" stroke="black" d="M657.15,-143.7C657.15,-135.98 657.15,-126.71 657.15,-118.11"/>
<polygon fill="black" stroke="black" points="660.65,-118.1 657.15,-108.1 653.65,-118.1 660.65,-118.1"/>
</g>
<!-- pkgconfig&#45;&gt;uname -->
<g id="edge17" class="edge">
<title>pkgconfig&#45;&gt;uname</title>
<path fill="none" stroke="black" d="M621.68,-77.92C614.88,-75.88 607.81,-73.83 601.15,-72 540.82,-55.45 470.34,-38.62 426.72,-28.5"/>
<polygon fill="black" stroke="black" points="427.29,-25.04 416.76,-26.19 425.72,-31.86 427.29,-25.04"/>
</g>
<!-- sed -->
<g id="node20" class="node">
<title>sed</title>
<ellipse fill="none" stroke="black" cx="749.15" cy="-90" rx="27" ry="18"/>
<text text-anchor="middle" x="749.15" y="-86.3" font-family="Times,serif" font-size="14.00">sed</text>
</g>
<!-- sed&#45;&gt;uname -->
<g id="edge20" class="edge">
<title>sed&#45;&gt;uname</title>
<path fill="none" stroke="black" d="M728.6,-78.09C723.65,-75.8 718.3,-73.6 713.15,-72 614.77,-41.49 494.05,-27.76 430.02,-22.24"/>
<polygon fill="black" stroke="black" points="430.13,-18.74 419.87,-21.39 429.54,-25.71 430.13,-18.74"/>
</g>
<!-- wget -->
<g id="node21" class="node">
<title>wget</title>
<ellipse fill="none" stroke="black" cx="823.15" cy="-90" rx="28.7" ry="18"/>
<text text-anchor="middle" x="823.15" y="-86.3" font-family="Times,serif" font-size="14.00">wget</text>
</g>
<!-- wget&#45;&gt;uname -->
<g id="edge22" class="edge">
<title>wget&#45;&gt;uname</title>
<path fill="none" stroke="black" d="M801.45,-78C796.22,-75.72 790.57,-73.54 785.15,-72 659.63,-36.42 505.04,-24.56 430.1,-20.74"/>
<polygon fill="black" stroke="black" points="430.23,-17.24 420.07,-20.25 429.89,-24.23 430.23,-17.24"/>
</g>
</g>
</svg>
